<?xml version="1.0" encoding="utf-8"?>
<!-- Generator: Adobe Illustrator 18.1.1, SVG Export Plug-In . SVG Version: 6.00 Build 0)  -->
<svg version="1.1" id="Layer_1" xmlns="http://www.w3.org/2000/svg" xmlns:xlink="http://www.w3.org/1999/xlink" x="0px" y="0px"
	 viewBox="0 0 64 64" enable-background="new 0 0 64 64" xml:space="preserve">
<g>
	<circle fill="#333333" cx="20" cy="46.1" r="0.7"/>
	<path fill="#333333" d="M55.4,10.5c-3.3,0-6.1,2.2-7,5.4l-0.4,1.5h-7.9h-7.8h-8.1h-7.8h-5.1c-1,0-2,0.5-2.6,1.3
		c-0.6,0.8-0.8,1.9-0.6,2.9l3.8,14.6c0.4,1.5,1.7,2.5,3.2,2.5h4.3h5.8h6.1h5.8h5.3l-0.8,2.9c-0.2,0-0.4,0-0.6,0
		c-2.3,0-4.2,1.7-4.5,3.8H24.5c-0.3-2.2-2.2-3.8-4.5-3.8c-2.5,0-4.6,2-4.6,4.6c0,2.5,2,4.6,4.6,4.6c2.3,0,4.2-1.7,4.5-3.8h12.2
		c0.4,2.2,2.2,3.8,4.5,3.8c2.5,0,4.6-2,4.6-4.6c0-1.8-1.1-3.4-2.6-4.1l1-3.8l0,0l0.1-0.3l5.6-21.6c0.7-2.5,2.9-4.3,5.5-4.3
		c0.4,0,0.7-0.3,0.7-0.7C56.2,10.8,55.8,10.5,55.4,10.5z M20,49.2c-1.7,0-3.1-1.4-3.1-3.1S18.3,43,20,43c1.7,0,3.1,1.4,3.1,3.1
		c0,0,0,0,0,0.1c0,0,0,0,0,0.1C23.1,47.8,21.7,49.2,20,49.2z M44.3,46.1c0,1.7-1.4,3.1-3.1,3.1c-1.7,0-3.1-1.4-3.1-3.1
		s1.4-3.1,3.1-3.1C42.9,43,44.3,44.4,44.3,46.1z M44.6,30.6h-5.6l0.8-5.2H46l-1.2,4.5L44.6,30.6z M10.8,25.4h6.2l0.8,5.2h-5.6
		L10.8,25.4z M18.4,25.4H24l0.3,5.2h-5L18.4,25.4z M25.4,25.4h5.9l-0.3,5.2h-5.4L25.4,25.4z M32.8,25.4h5.6l-0.8,5.2h-5L32.8,25.4z
		 M46.4,24h-6.3l0.8-5.2h6.9L46.4,24z M38.6,24h-5.7l0.3-5.2h6.2L38.6,24z M31.7,18.8L31.4,24h-6.1l-0.3-5.2H31.7z M23.6,18.8
		l0.3,5.2h-5.7l-0.8-5.2H23.6z M10,19.5c0.4-0.5,0.9-0.7,1.5-0.7h4.4l0.8,5.2h-6.3l-0.7-2.8C9.5,20.6,9.7,20,10,19.5z M13.5,35.8
		l-1-3.8H18l0.8,5.2h-3.4C14.5,37.2,13.7,36.6,13.5,35.8z M19.4,32h4.9l0.3,5.2h-4.4L19.4,32z M26.1,37.2L25.8,32H31l-0.3,5.2H26.1z
		 M32.2,37.2l0.3-5.2h4.9l-0.8,5.2H32.2z M38,37.2l0.8-5.2h5.4l-1.3,5.2H38z"/>
	<circle fill="#333333" cx="41.2" cy="46.1" r="0.7"/>
</g>
</svg>
