<?xml version="1.0" encoding="utf-8"?>
<!-- Generator: Adobe Illustrator 18.1.1, SVG Export Plug-In . SVG Version: 6.00 Build 0)  -->
<svg version="1.1" id="Layer_1" xmlns="http://www.w3.org/2000/svg" xmlns:xlink="http://www.w3.org/1999/xlink" x="0px" y="0px"
	 viewBox="0 0 64 64" enable-background="new 0 0 64 64" xml:space="preserve">
<g>
	<g>
		<rect x="44.7" y="18.4" fill="#A8A8A8" width="3.5" height="0.4"/>
	</g>
	<g>
		<rect x="46.2" y="16.9" fill="#A8A8A8" width="0.4" height="3.5"/>
	</g>
</g>
<g>
	<g>
		<rect x="16.4" y="37.8" fill="#A8A8A8" width="4.8" height="0.4"/>
	</g>
	<g>
		<rect x="18.6" y="35.6" fill="#A8A8A8" width="0.4" height="4.8"/>
	</g>
</g>
<g>
	<polygon fill="#A5A9AC" points="51.1,48.3 18.2,48.3 23.6,37 46.1,37 	"/>
</g>
<g>
	<path fill="#FFFFFF" d="M51.4,48.5H17.9l5.7-11.6h22.8L51.4,48.5z M18.5,48.1h32.3L46,37.2H23.8L18.5,48.1z"/>
</g>
<g>
	<path fill="#FFFFFF" d="M45,25.5c0,7.7-10.8,18.3-10.8,18.3S23.3,33.7,23.3,25.5c0-6,4.9-10.8,10.8-10.8C40.1,14.7,45,19.5,45,25.5
		z"/>
</g>
<g>
	<circle fill="#E3232A" cx="34" cy="25.5" r="3.8"/>
</g>
<g>
	<path fill="#A8A8A8" d="M34,29.6c-2.2,0-4-1.8-4-4c0-2.2,1.8-4,4-4c2.2,0,4,1.8,4,4C38.1,27.7,36.3,29.6,34,29.6z M34,21.9
		c-2,0-3.6,1.6-3.6,3.6c0,2,1.6,3.6,3.6,3.6c2,0,3.6-1.6,3.6-3.6C37.7,23.5,36,21.9,34,21.9z"/>
</g>
<g>
	<g>
		<path fill="#A8A8A8" d="M40.6,24h-0.5c-0.6,0-1.1-0.4-1.1-1v-1.8h0.4V23c0,0.3,0.3,0.6,0.7,0.6h0.5c0.4,0,0.7-0.3,0.7-0.6v-1.8
			h0.4V23C41.7,23.5,41.2,24,40.6,24z"/>
	</g>
	<g>
		<rect x="40.1" y="21.2" fill="#A8A8A8" width="0.4" height="7.7"/>
	</g>
</g>
<g>
	<g>
		<rect x="27.7" y="24.8" fill="#A8A8A8" width="0.4" height="4.3"/>
	</g>
	<g>
		<ellipse fill="#A8A8A8" cx="27.9" cy="23" rx="1.1" ry="1.8"/>
	</g>
	<g>
		<path fill="#A8A8A8" d="M27.9,24.9c-0.7,0-1.3-0.9-1.3-2c0-1.1,0.6-2,1.3-2c0.7,0,1.3,0.9,1.3,2C29.2,24.1,28.6,24.9,27.9,24.9z
			 M27.9,21.4c-0.5,0-0.9,0.7-0.9,1.6c0,0.9,0.4,1.6,0.9,1.6c0.5,0,0.9-0.7,0.9-1.6C28.8,22.1,28.4,21.4,27.9,21.4z"/>
	</g>
</g>
<g>
	<path fill="#A8A8A8" d="M34.1,44.1L34,44c-0.4-0.4-10.9-10.2-10.9-18.4c0-6.1,5-11,11-11c6.1,0,11,5,11,11c0,7.7-10.5,18-10.9,18.4
		L34.1,44.1z M34.1,14.9c-5.9,0-10.6,4.8-10.6,10.6c0,7.5,9.4,16.8,10.6,18c1.2-1.2,10.7-11,10.7-18C44.8,19.7,40,14.9,34.1,14.9z"
		/>
</g>
<g>
	<path fill="#A8A8A8" d="M47.6,35.2c-1.3,0-2.3-1.1-2.3-2.3c0-1.3,1.1-2.3,2.3-2.3c1.3,0,2.3,1.1,2.3,2.3
		C50,34.2,48.9,35.2,47.6,35.2z M47.6,30.9c-1.1,0-2,0.9-2,2c0,1.1,0.9,2,2,2c1.1,0,2-0.9,2-2C49.6,31.8,48.7,30.9,47.6,30.9z"/>
</g>
<g>
	<path fill="#A8A8A8" d="M22.2,17.7c-0.7,0-1.3-0.6-1.3-1.3c0-0.7,0.6-1.3,1.3-1.3c0.7,0,1.3,0.6,1.3,1.3
		C23.5,17.1,22.9,17.7,22.2,17.7z M22.2,15.5c-0.5,0-0.9,0.4-0.9,0.9c0,0.5,0.4,0.9,0.9,0.9c0.5,0,0.9-0.4,0.9-0.9
		C23.1,15.9,22.7,15.5,22.2,15.5z"/>
</g>
<g>
	<circle fill="#FFFFFF" cx="18.7" cy="30.6" r="3.3"/>
</g>
<g>
	<rect x="27.1" y="43.8" fill="#FFFFFF" width="9.1" height="0.4"/>
</g>
<g>
	<rect x="40.7" y="46.1" fill="#FFFFFF" width="5.8" height="0.4"/>
</g>
<g>
	<rect x="41.7" y="39.2" fill="#FFFFFF" width="2" height="0.4"/>
</g>
<g>
	<rect x="12.7" y="50.1" fill="#A8A8A8" width="19" height="0.4"/>
</g>
<g>
	<rect x="40.9" y="14.7" fill="#A8A8A8" width="4.5" height="0.4"/>
</g>
</svg>
