<?xml version="1.0" encoding="utf-8"?>
<!-- Generator: Adobe Illustrator 18.1.1, SVG Export Plug-In . SVG Version: 6.00 Build 0)  -->
<svg version="1.1" id="Layer_1" xmlns="http://www.w3.org/2000/svg" xmlns:xlink="http://www.w3.org/1999/xlink" x="0px" y="0px"
	 viewBox="0 0 64 64" enable-background="new 0 0 64 64" xml:space="preserve">
<g>
	<path fill="#E3232A" d="M52.2,51.7h-1.5V47V34.6v-3c0.3,0.1,0.6,0.1,0.9,0.1c2.5,0,4.6-2,4.6-4.4c0,0,0,0,0,0c0-0.1,0-0.2,0-0.2
		c0,0,0,0,0-0.1c0,0,0-0.1,0-0.1l-5.3-7.6c-0.1-0.2-0.4-0.3-0.6-0.3h-5.8h-0.6v-3.2h4.5c1.3,0,2.4-1.1,2.4-2.4v-2.5
		c0-1.3-1.1-2.4-2.4-2.4H16.1c-1.3,0-2.4,1.1-2.4,2.4v2.5c0,1.3,1.1,2.4,2.4,2.4h4.5v3.2H20h-5.8c-0.2,0-0.5,0.1-0.6,0.3l-5.3,7.6
		c0,0,0,0.1,0,0.1c0,0,0,0,0,0.1c0,0.1,0,0.2,0,0.2c0,0,0,0,0,0c0,2.4,2.1,4.4,4.6,4.4c0.3,0,0.6,0,0.9-0.1v20.1h-1.5
		c-2.2,0-4,1.8-4,4c0,0.4,0.3,0.7,0.7,0.7h46.5c0.4,0,0.7-0.3,0.7-0.7C56.2,53.5,54.4,51.7,52.2,51.7z M45.4,38.4
		c-0.4-0.2-0.8-0.1-1,0.3l-4.1,7.5H29.7V35.3h11.2l-3.7,6.8c-0.2,0.4-0.1,0.8,0.3,1c0.1,0.1,0.2,0.1,0.3,0.1c0.3,0,0.5-0.1,0.6-0.4
		l4.1-7.5h6.7v10.9h-7.3l3.7-6.8C45.9,39.1,45.7,38.6,45.4,38.4z M51.6,30.2c-1.5,0-2.7-0.9-3.1-2.2h6.1
		C54.3,29.3,53,30.2,51.6,30.2z M20.5,20.4h0.8h3.9l-1.4,6.2h-6.1l1.1-2.5L20.5,20.4z M43.9,20.4l2.7,6.2h-6.1l-1.4-6.2h3.9H43.9z
		 M37.7,20.4l1.4,6.2h-6.1v-6.2H37.7z M31.5,26.5h-6.1l1.4-6.2h4.8V26.5z M23.6,28c-0.4,1.3-1.6,2.2-3.1,2.2c-1.5,0-2.7-0.9-3.1-2.2
		H23.6z M31.4,28c-0.4,1.3-1.6,2.2-3.1,2.2c-1.5,0-2.7-0.9-3.1-2.2H31.4z M39.1,28c-0.4,1.3-1.6,2.2-3.1,2.2c-1.5,0-2.7-0.9-3.1-2.2
		H39.1z M46.9,28c-0.4,1.3-1.6,2.2-3.1,2.2c-1.5,0-2.7-0.9-3.1-2.2H46.9z M54.1,26.5h-5.9l-2.7-6.2h4.3L54.1,26.5z M15.1,13.4v-2.5
		c0-0.5,0.4-0.9,0.9-0.9h32.3c0.5,0,0.9,0.4,0.9,0.9v2.5c0,0.5-0.4,0.9-0.9,0.9h-5.2H21.3h-5.2C15.5,14.3,15.1,13.9,15.1,13.4z
		 M22,15.8h20.4v3.2h-4.1h-6.1h0h-6.1H22V15.8z M14.6,20.4h4.3l-1.1,2.5l-1.6,3.7h-5.9L14.6,20.4z M9.7,28h6.1
		c-0.4,1.3-1.6,2.2-3.1,2.2C11.3,30.2,10.1,29.3,9.7,28z M16.7,29.6c0.8,1.2,2.2,2,3.9,2c1.6,0,3.1-0.8,3.9-2c0.8,1.2,2.3,2,3.9,2
		c1.6,0,3.1-0.8,3.9-2c0.8,1.2,2.3,2,3.9,2c1.6,0,3.1-0.8,3.9-2c0.8,1.2,2.3,2,3.9,2c1.6,0,3.1-0.8,3.9-2c0.4,0.6,0.9,1.1,1.5,1.4
		v2.8H29c-0.4,0-0.7,0.3-0.7,0.7V47c0,0.4,0.3,0.7,0.7,0.7h20.2v4H25.5V34.6c0-0.4-0.3-0.7-0.7-0.7h-9.6V31
		C15.8,30.7,16.3,30.2,16.7,29.6z M24.1,51.7h-8.9V35.3h8.9V51.7z M9.7,54.9c0.3-1,1.3-1.8,2.4-1.8h2.2h0h10.3H50h2.2
		c1.2,0,2.1,0.8,2.4,1.8H9.7z"/>
	<circle fill="#E3232A" cx="22.5" cy="43.9" r="0.7"/>
</g>
</svg>
